<?xml version="1.0" encoding="utf-8"?><!DOCTYPE svg PUBLIC "-//W3C//DTD SVG 1.1//EN" "http://www.w3.org/Graphics/SVG/1.1/DTD/svg11.dtd"><svg xmlns="http://www.w3.org/2000/svg" xmlns:xlink="http://www.w3.org/1999/xlink"><symbol viewBox="0 0 24 24" id="github" xmlns="http://www.w3.org/2000/svg"><path fill="none" d="M0 0h24v24H0z"/><path d="M12 2a10 10 0 0 0-3.16 19.5c.5.08.66-.23.66-.5v-1.69C6.73 19.91 6.14 18 6.14 18A2.69 2.69 0 0 0 5 16.5c-.91-.62.07-.6.07-.6a2.1 2.1 0 0 1 1.53 1 2.15 2.15 0 0 0 2.91.83 2.16 2.16 0 0 1 .63-1.34C8 16.17 5.62 15.31 5.62 11.5a3.87 3.87 0 0 1 1-2.71 3.58 3.58 0 0 1 .1-2.64s.84-.27 2.75 1a9.63 9.63 0 0 1 5 0c1.91-1.29 2.75-1 2.75-1a3.58 3.58 0 0 1 .1 2.64 3.87 3.87 0 0 1 1 2.71c0 3.82-2.34 4.66-4.57 4.91a2.39 2.39 0 0 1 .69 1.85V21c0 .27.16.59.67.5A10 10 0 0 0 12 2Z"/></symbol><symbol viewBox="0 0 192 192" fill="none" stroke="#0000000" id="instagram" xmlns="http://www.w3.org/2000/svg"><path stroke-width="12" d="M96 162c-14.152 0-24.336-.007-32.276-.777-7.849-.761-12.87-2.223-16.877-4.741a36 36 0 0 1-11.33-11.329c-2.517-4.007-3.98-9.028-4.74-16.877C30.007 120.336 30 110.152 30 96c0-14.152.007-24.336.777-32.276.76-7.849 2.223-12.87 4.74-16.877a36 36 0 0 1 11.33-11.33c4.007-2.517 9.028-3.98 16.877-4.74C71.663 30.007 81.847 30 96 30c14.152 0 24.336.007 32.276.777 7.849.76 12.87 2.223 16.877 4.74a36 36 0 0 1 11.329 11.33c2.518 4.007 3.98 9.028 4.741 16.877.77 7.94.777 18.124.777 32.276 0 14.152-.007 24.336-.777 32.276-.761 7.849-2.223 12.87-4.741 16.877a36 36 0 0 1-11.329 11.329c-4.007 2.518-9.028 3.98-16.877 4.741-7.94.77-18.124.777-32.276.777Z"/><circle cx="96" cy="96" r="30" stroke-width="12"/><circle cx="135" cy="57" r="9"/></symbol><symbol viewBox="0 0 24 24" xml:space="preserve" id="telegram" xmlns="http://www.w3.org/2000/svg"><path d="M19.2 4.4 2.9 10.7c-1.1.4-1.1 1.1-.2 1.3l4.1 1.3 1.6 4.8c.2.5.1.7.6.7.4 0 .6-.2.8-.4l2-2 4.2 3.1c.8.4 1.3.2 1.5-.7l2.8-13.1c.3-1.1-.4-1.7-1.1-1.3zm-2.1 3-7.8 7.1-.3 3.3L7.4 13l9.2-5.8c.4-.3.8-.1.5.2z"/><path style="fill:none" d="M0 0h24v24H0z"/></symbol><symbol viewBox="-2.5 0 32 32" id="vk" xmlns="http://www.w3.org/2000/svg"><path d="M16.563 15.75c-.5-.188-.5-.906-.531-1.406-.125-1.781.5-4.5-.25-5.656-.531-.688-3.094-.625-4.656-.531-.438.063-.969.156-1.344.344s-.75.5-.75.781c0 .406.938.344 1.281.875.375.563.375 1.781.375 2.781 0 1.156-.188 2.688-.656 2.75-.719.031-1.125-.688-1.5-1.219a20.851 20.851 0 0 1-2.063-3.563c-.281-.656-.438-1.375-.844-1.656-.625-.438-1.75-.469-2.844-.438-1 .031-2.438-.094-2.719.5-.219.656.25 1.281.5 1.813 1.281 2.781 2.656 5.219 4.344 7.531 1.563 2.156 3.031 3.875 5.906 4.781.813.25 4.375.969 5.094 0 .25-.375.188-1.219.313-1.844s.281-1.25.875-1.281c.5-.031.781.406 1.094.719.344.344.625.625.875.938.594.594 1.219 1.406 1.969 1.719 1.031.438 2.625.313 4.125.25 1.219-.031 2.094-.281 2.188-1 .063-.563-.563-1.375-.938-1.844-.938-1.156-1.375-1.5-2.438-2.563-.469-.469-1.063-.969-1.063-1.531-.031-.344.25-.656.5-1 1.094-1.625 2.188-2.781 3.188-4.469.281-.5.938-1.656.688-2.219-.281-.625-1.844-.438-2.813-.438-1.25 0-2.875-.094-3.188.156-.594.406-.844 1.063-1.125 1.688-.625 1.438-1.469 2.906-2.344 4-.313.375-.906 1.156-1.25 1.031z"/></symbol></svg>